<svg xmlns="http://www.w3.org/2000/svg">
    <symbol id="icon-baby-weight-2" viewBox="0 0 512 512" fill="#000000" stroke="#000000">
      <path fill="#000000" stroke="#000000" d="m506 289c-11-6-45-3-101-5 11-8 26-28 32-37 6-9 9-42 3-54-18-37-54-23-58-36-6-27 22-24 22-55 0-30-37-48-49-48-6 0-12 1-12 18 0 9 11 27 6 36-7 15-16 5-36 25-19 19-18 42-30 42-11 0-9-24-18-42-9-19-14-43-42-43-28 0-6 46-3 58 3 12 0 33-9 33-9 0-24-24-36-24-12 0-9 6-18 6-9 0-15-18-49-12-33 6-43 25-48 60-5 35 6 62 30 72 1 1 2 1 3 1-48 2-77 0-87 5-12 6 0 30 6 36 6 6 66 12 84 24 18 12 24 18 43 24-28 29-31 49-31 61 0 2 3 18 12 18 14 2 135 0 137 0 1 0 122 2 136 0 9 0 12-16 12-18 0-12-5-32-32-61 18-6 24-12 42-24 18-12 78-18 84-24 6-6 19-30 7-36z m-322-15c24-1 47 4 69 6-34 0-70 0-119 2 14-3 29-7 50-8z m15 154c0-15 6-36 21-42l78 0c15 6 21 27 21 42z m161-102c-11 2-43 23-59 28-21 5-38 4-45 4-7 0-23 1-45-4-16-5-48-26-59-28-10-3-15-9-16-13 0 0 25-6 120-6 95 0 120 6 120 6-2 4-6 11-16 13z m-76-46c10-2 20-5 29-12 21-15-3-66 0-69 3-3 12 24 48 24 37 0 55-15 61-12 6 3 0 24-6 33-6 8-30 33-34 39-39-2-70-3-98-3z"/>
    </symbol>
</svg>
