<svg xmlns="http://www.w3.org/2000/svg" style="display: none;">
    <symbol id="icon-baby" viewBox="0 0 512 512">
      <path d="m254 0l2 0c15 1 30 3 43 10 27 12 48 36 56 63 3 9 4 18 6 27 5 26 11 53 17 80-40 29-80 58-120 87-42-30-83-60-125-90 6-30 13-60 19-90 2-12 7-24 13-35 14-24 38-42 65-49 8-2 16-2 24-3m-40 49c-18 17-29 41-33 65 0 6 0 12 0 19 2 17 10 33 22 45 11 11 26 19 41 21 15 2 30 0 44-7 25-11 42-38 42-66 1-18-5-37-14-53-11-19-28-35-49-41-6 8-11 15-14 24-2 2-1 4 0 7 2 0 5 1 8-1 3-1 4-4 5-7 0 4 1 9-2 13-2 3-6 4-9 5-6 0-13-2-15-8-1-12 5-23 9-34-13 2-25 9-35 18z m-12 61c2-2 3-6 6-6 3 1 5 4 8 6 2 0 5 0 7 0 2-2 5-5 8-6 3 0 4 4 6 5-2 5-7 7-10 9-5 3-10 3-15 0-4-2-8-4-10-8z m71 0c2-2 3-6 6-6 3 1 5 4 8 6 2 0 5 0 7 0 2-2 5-5 8-6 3 0 4 4 6 5-2 5-7 7-10 9-5 3-10 3-15 0-4-2-8-4-10-8z m-21 16c6-1 12 2 17 5 8 6 15 14 17 24 0 5-3 9-6 13-9 7-21 11-32 9-7-2-13-5-18-10-5-4-8-11-5-17 5-11 15-21 27-24m-1 21c-4 1-7 6-7 11 0 8 11 12 17 8 6-4 6-13 1-18-3-2-7-2-11-1z m-124 61c38 23 76 46 114 69 20 12 39 25 59 37-10-12-21-23-32-34 39-23 78-45 117-67-4 31-7 63-10 95-1 4-1 9 0 13 2 10 3 19 3 29 0 11 0 21-1 32-3 33-13 68-36 93-18 21-46 34-74 36-4 0-8 0-12 1l0 0c-8-1-16-1-23-3-16-2-31-8-44-16-21-15-36-38-45-62-9-26-12-55-11-82 0-10 2-20 4-30 1-5 1-10 0-15-3-32-6-64-9-96z"/>
    </symbol>
</svg>
