<svg xmlns="http://www.w3.org/2000/svg" style="display: none;">
    <symbol id="icon-pacifier" viewBox="0 0 512 512">
      <path d="m303 389c5 15 10 35 14 51 2 11 4 20 5 25-1 1-2 2-5 2l-131 0c-2 0-4-1-4-2 1-8 6-30 12-51 3-14 7-27 11-36 1-2 1-3 2-4l90 0c1 3 4 9 6 15z m-249-104c0 12 1 22 1 26 0 23 45 44 110 54-6 15-11 35-16 53-5 22-9 41-9 41l-1 2 0 2c0 27 22 46 47 46l131 0c26 0 47-19 47-46l0-2 0-2c0 0-6-28-14-56-3-13-7-26-11-37 72-9 122-30 122-55 0-5 1-15 2-26-35 32-122 46-205 46-82 0-170-14-204-46z m259-88c-2 13-7 29-11 40-5 12-21 31-49 31-28 0-44-19-49-31-4-10-9-26-11-39-80 8-138 30-138 56 0 33 91 60 203 60 112 0 203-27 203-60 0-27-62-50-148-57m-113-113c-5 15-6 34-1 49 1 1 0 1 0 1-15-16-21-40-17-62 4-18 20-44 44-39 0 1 0 1 0 1-9 17-20 31-26 50z m9 104c0 10 5 29 11 43 0 0 9 20 33 20 24 0 33-20 33-20 6-14 11-33 11-43 0-10 0-18 0-18 0 0 8-10 19-20 0 0 24-24 24-57 0-48-39-88-87-88-48 0-87 40-87 88 0 33 24 57 24 57 10 10 19 19 19 19 0 1 0 9 0 19z"/>
    </symbol>
</svg>
