<svg xmlns="http://www.w3.org/2000/svg" style="display: none;">
    <symbol id="icon-pregnant" viewBox="0 0 512 512">
      <path d="m318 179l-119 0c0 0-105 79-121 297 0-1 44 35 179 36 134 0 176-36 176-36-16-218-115-297-115-297z m-61 286c-57 0-104-46-104-103 0-57 47-103 104-103 57 0 103 46 103 103 0 57-46 103-103 103z m63-108c0-42-41-42-41-42-16 0-22 12-24 13-1-1-8-13-24-13 0 0-40 0-40 42 0 31 61 68 64 69 4-1 65-38 65-69z m13-279c0 42-35 77-78 77-43 0-77-35-77-77 0-43 34-78 77-78 43 0 78 35 78 78z"/>
    </symbol>
</svg>
