<svg xmlns="http://www.w3.org/2000/svg">
    <symbol id="icon-woman-health" viewBox="0 0 512 512">
      <path d="m296 5c68 14 126 69 143 136 2 8 3 17 5 25 5 43-5 87-28 124-29 46-79 79-133 87 1 9 0 18 0 27 18 0 35 0 53 0 0 18 0 36 0 54-18 0-35 0-53 0 1 18 0 36 0 54-18 0-36 0-54 0 0-18 0-36 0-54-18 0-36 0-53 0 0-18 0-36 0-54 17 0 35 0 53 0 0-9 0-18 0-27-48-7-92-33-122-71-22-28-36-62-39-97 0-1-1-4-1-5-4-56 18-113 58-151 45-43 111-63 171-48z m-60 51c-46 7-87 40-104 83-15 35-14 76 4 110 16 33 46 59 81 69 27 9 58 8 85-2 35-13 64-41 78-75 12-28 14-61 5-90-11-37-40-69-76-85-23-10-49-13-73-10z"/>
    </symbol>
</svg>
