<svg xmlns="http://www.w3.org/2000/svg" style="display: none;">

    <symbol id="icon-woman-health" viewBox="0 0 512 512">
      <path d="m296 5c68 14 126 69 143 136 2 8 3 17 5 25 5 43-5 87-28 124-29 46-79 79-133 87 1 9 0 18 0 27 18 0 35 0 53 0 0 18 0 36 0 54-18 0-35 0-53 0 1 18 0 36 0 54-18 0-36 0-54 0 0-18 0-36 0-54-18 0-36 0-53 0 0-18 0-36 0-54 17 0 35 0 53 0 0-9 0-18 0-27-48-7-92-33-122-71-22-28-36-62-39-97 0-1-1-4-1-5-4-56 18-113 58-151 45-43 111-63 171-48z m-60 51c-46 7-87 40-104 83-15 35-14 76 4 110 16 33 46 59 81 69 27 9 58 8 85-2 35-13 64-41 78-75 12-28 14-61 5-90-11-37-40-69-76-85-23-10-49-13-73-10z"/>
    </symbol>

    <symbol id="icon-pregnant" viewBox="0 0 512 512">
      <path d="m318 179l-119 0c0 0-105 79-121 297 0-1 44 35 179 36 134 0 176-36 176-36-16-218-115-297-115-297z m-61 286c-57 0-104-46-104-103 0-57 47-103 104-103 57 0 103 46 103 103 0 57-46 103-103 103z m63-108c0-42-41-42-41-42-16 0-22 12-24 13-1-1-8-13-24-13 0 0-40 0-40 42 0 31 61 68 64 69 4-1 65-38 65-69z m13-279c0 42-35 77-78 77-43 0-77-35-77-77 0-43 34-78 77-78 43 0 78 35 78 78z"/>
    </symbol>

    <symbol id="icon-pacifier" viewBox="0 0 512 512">
      <path d="m303 389c5 15 10 35 14 51 2 11 4 20 5 25-1 1-2 2-5 2l-131 0c-2 0-4-1-4-2 1-8 6-30 12-51 3-14 7-27 11-36 1-2 1-3 2-4l90 0c1 3 4 9 6 15z m-249-104c0 12 1 22 1 26 0 23 45 44 110 54-6 15-11 35-16 53-5 22-9 41-9 41l-1 2 0 2c0 27 22 46 47 46l131 0c26 0 47-19 47-46l0-2 0-2c0 0-6-28-14-56-3-13-7-26-11-37 72-9 122-30 122-55 0-5 1-15 2-26-35 32-122 46-205 46-82 0-170-14-204-46z m259-88c-2 13-7 29-11 40-5 12-21 31-49 31-28 0-44-19-49-31-4-10-9-26-11-39-80 8-138 30-138 56 0 33 91 60 203 60 112 0 203-27 203-60 0-27-62-50-148-57m-113-113c-5 15-6 34-1 49 1 1 0 1 0 1-15-16-21-40-17-62 4-18 20-44 44-39 0 1 0 1 0 1-9 17-20 31-26 50z m9 104c0 10 5 29 11 43 0 0 9 20 33 20 24 0 33-20 33-20 6-14 11-33 11-43 0-10 0-18 0-18 0 0 8-10 19-20 0 0 24-24 24-57 0-48-39-88-87-88-48 0-87 40-87 88 0 33 24 57 24 57 10 10 19 19 19 19 0 1 0 9 0 19z"/>
    </symbol>

    <symbol id="icon-baby-weight-2" viewBox="0 0 512 512">
      <path d="m506 289c-11-6-45-3-101-5 11-8 26-28 32-37 6-9 9-42 3-54-18-37-54-23-58-36-6-27 22-24 22-55 0-30-37-48-49-48-6 0-12 1-12 18 0 9 11 27 6 36-7 15-16 5-36 25-19 19-18 42-30 42-11 0-9-24-18-42-9-19-14-43-42-43-28 0-6 46-3 58 3 12 0 33-9 33-9 0-24-24-36-24-12 0-9 6-18 6-9 0-15-18-49-12-33 6-43 25-48 60-5 35 6 62 30 72 1 1 2 1 3 1-48 2-77 0-87 5-12 6 0 30 6 36 6 6 66 12 84 24 18 12 24 18 43 24-28 29-31 49-31 61 0 2 3 18 12 18 14 2 135 0 137 0 1 0 122 2 136 0 9 0 12-16 12-18 0-12-5-32-32-61 18-6 24-12 42-24 18-12 78-18 84-24 6-6 19-30 7-36z m-322-15c24-1 47 4 69 6-34 0-70 0-119 2 14-3 29-7 50-8z m15 154c0-15 6-36 21-42l78 0c15 6 21 27 21 42z m161-102c-11 2-43 23-59 28-21 5-38 4-45 4-7 0-23 1-45-4-16-5-48-26-59-28-10-3-15-9-16-13 0 0 25-6 120-6 95 0 120 6 120 6-2 4-6 11-16 13z m-76-46c10-2 20-5 29-12 21-15-3-66 0-69 3-3 12 24 48 24 37 0 55-15 61-12 6 3 0 24-6 33-6 8-30 33-34 39-39-2-70-3-98-3z"/>
    </symbol>

    <symbol id="icon-bullhorn" viewBox="0 0 512 512">
      <path d="m475 183c11 0 19 3 26 11c7 7 11 15 11 25c0 11-4 19-11 26c-7 7-15 11-26 11l0 110c0 10-3 18-10 25c-8 8-16 11-26 11c-80-66-157-102-232-108c-11 3-20 10-26 19c-6 9-9 18-9 28c0 10 4 19 11 27c-3 6-6 12-6 18c-1 7 0 12 2 17c1 5 4 10 9 16c5 5 9 10 14 14c4 4 10 9 17 14c-5 11-16 19-31 24c-16 5-32 6-49 3c-16-2-29-7-37-15c-2-5-4-13-9-25c-4-13-7-22-9-27c-2-6-4-15-6-26c-3-11-4-21-5-29c0-8 0-17 1-28c1-11 3-21 7-31l-35 0c-13 0-24-5-33-14c-9-9-13-20-13-32l0-55c0-13 4-23 13-32c9-9 20-14 33-14l137 0c83 0 168-36 256-109c10 0 18 3 26 10c7 8 10 16 10 26z m-36 172l0-272c-75 57-148 90-220 98l0 77c72 8 145 40 220 97z"/>
    </symbol>

    <symbol id="icon-baby" viewBox="0 0 512 512">
      <path d="m254 0l2 0c15 1 30 3 43 10 27 12 48 36 56 63 3 9 4 18 6 27 5 26 11 53 17 80-40 29-80 58-120 87-42-30-83-60-125-90 6-30 13-60 19-90 2-12 7-24 13-35 14-24 38-42 65-49 8-2 16-2 24-3m-40 49c-18 17-29 41-33 65 0 6 0 12 0 19 2 17 10 33 22 45 11 11 26 19 41 21 15 2 30 0 44-7 25-11 42-38 42-66 1-18-5-37-14-53-11-19-28-35-49-41-6 8-11 15-14 24-2 2-1 4 0 7 2 0 5 1 8-1 3-1 4-4 5-7 0 4 1 9-2 13-2 3-6 4-9 5-6 0-13-2-15-8-1-12 5-23 9-34-13 2-25 9-35 18z m-12 61c2-2 3-6 6-6 3 1 5 4 8 6 2 0 5 0 7 0 2-2 5-5 8-6 3 0 4 4 6 5-2 5-7 7-10 9-5 3-10 3-15 0-4-2-8-4-10-8z m71 0c2-2 3-6 6-6 3 1 5 4 8 6 2 0 5 0 7 0 2-2 5-5 8-6 3 0 4 4 6 5-2 5-7 7-10 9-5 3-10 3-15 0-4-2-8-4-10-8z m-21 16c6-1 12 2 17 5 8 6 15 14 17 24 0 5-3 9-6 13-9 7-21 11-32 9-7-2-13-5-18-10-5-4-8-11-5-17 5-11 15-21 27-24m-1 21c-4 1-7 6-7 11 0 8 11 12 17 8 6-4 6-13 1-18-3-2-7-2-11-1z m-124 61c38 23 76 46 114 69 20 12 39 25 59 37-10-12-21-23-32-34 39-23 78-45 117-67-4 31-7 63-10 95-1 4-1 9 0 13 2 10 3 19 3 29 0 11 0 21-1 32-3 33-13 68-36 93-18 21-46 34-74 36-4 0-8 0-12 1l0 0c-8-1-16-1-23-3-16-2-31-8-44-16-21-15-36-38-45-62-9-26-12-55-11-82 0-10 2-20 4-30 1-5 1-10 0-15-3-32-6-64-9-96z"/>
    </symbol>

    <symbol id="icon-born" viewBox="0 0 512 512">
      <path d="m29 362c5 15 49 30 76 30 60 0 46-12 107-45 99 5 138-64 118-128 5-8 20-10 20-10l133-25c0 0-111 4-133 0-10-10-5-24-29-24-25 0-30 14-30 29 5 25 5 15 15 35 4 24 5 60-35 64-22-4-34 0-39-35 0-34 17-19 17-76 0-14-12-52-67-57 0 0 20 20 15 35-5 5-15 0-15 0 0 0 15 64-5 74-54-40-69-50-69-129-49 10-26 50-39 55-13 5-15-30-35-30-29 40 10 67 5 79-4 12-10 15-34 15 20 94 100 91 103 113-19 25-54 25-79 30z m382-15c25-30 33-67 53-151 43 43 48 110 43 168-3 36-43 76-139 19 8-5 15-10 21-15-2 0-4 0-6 0-16 0-29-12-29-28 0-16 13-29 29-29 16 0 29 13 29 29 0 2-1 4-1 7z"></path>
    </symbol>

</svg>
